HIERARCHY
ROOT Hips
{
  OFFSET 35.6588 99.5152 17.108
  CHANNELS 6 Xposition Yposition Zposition Zrotation Xrotation Yrotation
  JOINT ToSpine
  {
    OFFSET -0.0105055 1.38907 -7.13956
    CHANNELS 3 Zrotation Xrotation Yrotation
    JOINT Spine
    {
      OFFSET 0.0105055 10 1
      CHANNELS 3 Zrotation Xrotation Yrotation
      JOINT Spine1
      {
        OFFSET 0 12 1.60637
        CHANNELS 3 Zrotation Xrotation Yrotation
        JOINT Neck
        {
          OFFSET 0 27 2.26658
          CHANNELS 3 Zrotation Xrotation Yrotation
          JOINT Head
          {
            OFFSET 0 9 2.12705
            CHANNELS 3 Zrotation Xrotation Yrotation
            End Site
            {
              OFFSET 0 11 2
            }
          }
        }
        JOINT LeftShoulder
        {
          OFFSET 8 19.6109 2.86452
          CHANNELS 3 Zrotation Xrotation Yrotation
          JOINT LeftArm
          {
            OFFSET 12 1 0.681055
            CHANNELS 3 Zrotation Xrotation Yrotation
            JOINT LeftForeArm
            {
              OFFSET 19 0 -1.52608
              CHANNELS 3 Zrotation Xrotation Yrotation
              JOINT LeftHand
              {
                OFFSET 23 0 0
                CHANNELS 3 Zrotation Xrotation Yrotation
                End Site
                {
                  OFFSET 10 0 0
                }
              }
            }
          }
        }
        JOINT RightShoulder
        {
          OFFSET -8 19.6109 2.86452
          CHANNELS 3 Zrotation Xrotation Yrotation
          JOINT RightArm
          {
            OFFSET -12 1 0.681055
            CHANNELS 3 Zrotation Xrotation Yrotation
            JOINT RightForeArm
            {
              OFFSET -19 0 -1.52608
              CHANNELS 3 Zrotation Xrotation Yrotation
              JOINT RightHand
              {
                OFFSET -23 0 0
                CHANNELS 3 Zrotation Xrotation Yrotation
                End Site
                {
                  OFFSET -10 0 0
                }
              }
            }
          }
        }
      }
    }
  }
  JOINT LeftUpLeg
  {
    OFFSET 9 -7.17245 0
    CHANNELS 3 Zrotation Xrotation Yrotation
    JOINT LeftLeg
    {
      OFFSET 0 -44.1113 0
      CHANNELS 3 Zrotation Xrotation Yrotation
      JOINT LeftFoot
      {
        OFFSET 0 -36.1829 0
        CHANNELS 3 Zrotation Xrotation Yrotation
        JOINT LeftToeBase
        {
          OFFSET 0 -4.84184 13
          CHANNELS 3 Zrotation Xrotation Yrotation
          End Site
          {
            OFFSET 0 1 6
          }
        }
      }
    }
  }
  JOINT RightUpLeg
  {
    OFFSET -9 -7.17245 0
    CHANNELS 3 Zrotation Xrotation Yrotation
    JOINT RightLeg
    {
      OFFSET 0 -44.0551 0
      CHANNELS 3 Zrotation Xrotation Yrotation
      JOINT RightFoot
      {
        OFFSET 0 -36.1469 0
        CHANNELS 3 Zrotation Xrotation Yrotation
        JOINT RightToeBase
        {
          OFFSET 0 -4.92256 13
          CHANNELS 3 Zrotation Xrotation Yrotation
          End Site
          {
            OFFSET 0 1 6
          }
        }
      }
    }
  }
}
MOTION
Frames:	8
Frame Time:	0.0333333
32.714 44.8755 0.90792 -0.722988 13.6433 1.54671 0 0 0 8.66564 57.7415 -2.95151 -4.30993 -9.37095 3.03321 6.62841 -33.9188 2.00306 -2.90661 6.01575 2.50348 -7.07372 3.27969 -18.5279 -19.1582 -15.0761 -86.8871 -2.67724 -25.0752 5.0603 -25.3654 0.850034 -3.77972 12.5532 5.52107 24.0965 -2.40251 -18.8339 55.0532 3.5012 -33.3266 -2.73464 18.1969 0.825951 5.1565 95.6893 -53.8369 113.475 -179.999 39.5297 148.276 44.8669 -42.1812 18.0947 0.658934 10.269 -4.06842 -85.2145 -60.6282 -111.536 179.997 39.8765 -174.951 -50.711 -50.1143 -24.9837 2.33145 -8.43947 -1.56488 
32.6414 44.3923 1.12086 -0.71998 12.867 1.63253 0 0 0 8.45173 57.3225 -2.85996 -4.1202 -9.69025 2.92364 6.78515 -33.6651 1.83393 -3.14447 5.79122 2.4294 -7.66484 3.38506 -18.4557 -19.4099 -13.9316 -86.1513 -2.92055 -25.4367 5.07561 -25.9911 0.842766 -3.65029 12.8416 5.65288 24.3765 -2.58344 -17.6929 54.5508 3.82592 -33.8377 -2.60609 18.6878 0.802017 4.87065 95.0037 -53.9379 112.133 180 38.6293 148.037 45.7191 -42.8811 18.8014 0.513463 11.0278 -3.69917 -83.9493 -60.3091 -110.148 -179.999 38.8287 -174.689 -50.9465 -50.9604 -25.5827 2.1016 -7.74296 -0.697654 
32.7262 44.4146 1.28603 -0.750257 12.844 1.33532 0 0 0 8.41014 56.4576 -2.67289 -4.40618 -9.7339 2.95303 6.13459 -34.296 1.58245 -2.4957 5.91583 1.99739 -8.45927 3.47773 -18.0547 -19.7402 -13.2323 -85.9751 -3.09968 -24.2559 5.02742 -25.9342 0.852605 -3.70157 12.47 5.58169 24.4932 -1.52207 -17.4828 54.3785 3.78747 -32.8535 -2.33087 18.21 0.777495 4.84931 94.313 -53.8028 111.374 -180 38.5207 148.022 46.4291 -43.382 19.3625 0.594214 11.3708 -3.9713 -83.6226 -60.5163 -109.766 179.998 38.8622 -175.098 -51.2654 -50.6671 -25.5961 2.1825 -8.14397 -0.254846 
32.7497 45.1911 1.22847 -0.618643 13.6979 1.21765 0 0 0 8.63389 55.5395 -2.89717 -5.0923 -10.2374 2.77129 6.74576 -35.3927 1.74511 -3.00966 6.20026 2.20248 -8.05664 3.37456 -17.905 -20.3162 -12.6955 -85.4753 -2.97938 -24.9852 5.05698 -25.7395 0.839626 -3.67362 12.6791 5.58919 24.2705 -1.5317 -16.7679 54.8949 3.93145 -34.6055 -2.57108 18.4801 0.777149 4.77515 94.2862 -53.8904 112.005 -179.997 39.7809 148.523 46.2194 -42.5961 18.8913 0.79827 9.77035 -4.46716 -84.2326 -60.5872 -110.545 -179.998 40.1976 -175.039 -51.2644 -49.4347 -24.9051 2.59639 -9.62193 -0.580281 
32.605 46.6946 0.921474 -0.405779 15.5513 1.15295 0 0 0 8.49213 54.472 -2.87623 -5.60626 -11.2988 2.73237 6.67096 -35.8586 1.73162 -3.01683 6.18322 2.15953 -8.61268 3.50211 -18.0263 -19.012 -12.3618 -84.5338 -3.3536 -25.8316 5.09262 -25.6766 0.834667 -3.6611 12.844 5.63666 24.2961 -1.42004 -16.494 54.9355 3.81571 -34.308 -2.94739 18.3009 0.834752 5.1786 95.3328 -54.3953 113.899 179.995 42.4539 148.828 44.2424 -41.4893 17.5055 0.709159 9.68769 -4.1741 -86.3924 -60.7862 -113.193 -179.996 42.8879 -174.149 -50.1468 -46.9351 -22.967 2.95896 -10.8372 -2.10436 
32.5787 48.7897 0.634146 -0.205095 18.1155 1.0068 0 0 0 7.92994 52.7941 -2.4523 -5.85722 -11.7237 2.75203 7.17078 -36.8403 1.76915 -3.4709 6.22064 2.22883 -8.21962 3.46358 -18.2581 -20.0218 -12.3557 -84.283 -3.00821 -24.7996 5.04907 -25.6279 0.936195 -4.11461 13.1486 5.6642 24.057 -1.60024 -16.336 55.0692 4.09606 -33.29 -2.39379 18.2061 0.803076 5.00915 96.0781 -54.8138 115.938 -179.993 45.9867 148.673 41.8603 -40.801 16.1893 0.626487 10.359 -3.98771 -88.7984 -60.9739 -115.968 179.998 46.3988 -172.904 -48.3508 -45.2494 -21.1923 2.80815 -10.2477 -2.00166 
32.5127 51.4465 0.212737 0.0134107 21.0826 0.958249 0 0 0 7.56481 51.3693 -2.30083 -6.04041 -12.6403 2.60174 7.10077 -37.8436 1.59111 -3.36953 6.58955 1.98234 -8.66063 3.50622 -17.9929 -20.3464 -12.2804 -84.2519 -2.93308 -23.905 5.01298 -25.2331 0.969331 -4.32826 12.8237 5.53281 23.8264 -0.382515 -16.2383 55.6402 3.9947 -34.1136 -2.39122 17.706 0.816669 5.23872 96.877 -55.7445 118.278 179.989 50.6372 148.899 39.8781 -39.0528 14.6656 0.455386 8.20177 -3.19513 -91.1892 -61.2898 -119.007 -179.998 51.0288 -171.806 -46.7619 -42.3637 -19.0185 2.94467 -10.7795 -1.94622 
32.3866 54.4554 -0.253696 -0.0396558 24.0156 1.09686 0 0 0 7.19749 49.9287 -2.08074 -5.95695 -13.3 2.55525 7.33784 -38.1175 1.55802 -3.64588 6.60932 1.99656 -8.76782 3.50245 -17.8461 -20.9941 -12.0123 -84.1476 -2.84104 -22.0562 4.94399 -24.6898 1.01775 -4.64639 12.9079 5.54366 23.7787 0.481925 -16.2304 56.0311 3.73793 -33.0814 -2.71665 17.7175 0.892053 5.71832 97.7896 -56.7299 120.229 -179.989 55.8842 148.694 36.3473 -37.4314 12.6905 0.403705 9.0597 -3.14744 -92.4566 -61.845 -121.029 -179.983 56.3807 -170.12 -44.4461 -39.1429 -16.5332 3.19731 -11.7109 -2.89378 
